<?xml version="1.0" standalone="no"?>
<!DOCTYPE svg PUBLIC "-//W3C//DTD SVG 20010904//EN"
 "http://www.w3.org/TR/2001/REC-SVG-20010904/DTD/svg10.dtd">
<svg version="1.0" xmlns="http://www.w3.org/2000/svg"
 width="237.000000pt" height="237.000000pt" viewBox="0 0 237.000000 237.000000"
 preserveAspectRatio="xMidYMid meet">
<metadata>
Created by potrace 1.11, written by Peter Selinger 2001-2013
</metadata>
<g transform="translate(0.000000,237.000000) scale(0.100000,-0.100000)"
fill="#000000" stroke="none">
<path d="M1120 1655 l0 -705 -275 0 -275 0 0 220 0 220 -60 0 -60 0 0 -567 0
-568 54 -38 c30 -20 57 -37 60 -37 3 0 6 108 6 240 l0 240 275 0 275 0 0 -330
0 -330 65 0 65 0 0 710 0 710 270 0 270 0 2 -222 3 -223 60 0 60 0 0 570 0
569 -54 38 c-30 21 -58 38 -63 38 -4 0 -8 -112 -8 -250 l0 -250 -270 0 -270 0
0 335 0 335 -65 0 -65 0 0 -705z m670 -100 c0 -13 -37 -15 -270 -15 -233 0
-270 2 -270 15 0 13 37 15 270 15 233 0 270 -2 270 -15z m-670 -750 l0 -25
-269 0 c-271 0 -290 2 -277 35 4 13 49 15 276 15 l270 0 0 -25z"/>
<path d="M943 2334 c-401 -88 -740 -388 -868 -768 -141 -421 -41 -883 259
-1193 l75 -78 1 583 0 582 100 0 100 0 0 -235 0 -235 235 0 235 0 0 680 0 680
-37 -1 c-21 -1 -66 -7 -100 -15z"/>
<path d="M1290 2041 l0 -311 230 0 230 0 -2 247 -3 248 -87 37 c-99 42 -219
75 -308 85 l-60 6 0 -312z"/>
<path d="M1960 1487 l0 -587 -105 0 -105 0 0 240 0 240 -230 0 -230 0 0 -686
0 -687 60 7 c198 23 430 125 593 262 394 332 529 872 337 1349 -56 140 -150
283 -259 390 l-61 59 0 -587z"/>
<path d="M610 386 l0 -235 66 -31 c90 -43 192 -77 287 -95 132 -25 117 -61
117 290 l0 305 -235 0 -235 0 0 -234z"/>
</g>
</svg>
